<?xml version="1.0" encoding="UTF-8"?> <!-- Generator: Adobe Illustrator 19.1.1, SVG Export Plug-In . SVG Version: 6.00 Build 0) --> <svg xmlns="http://www.w3.org/2000/svg" xmlns:xlink="http://www.w3.org/1999/xlink" id="Capa_1" x="0px" y="0px" viewBox="-202 395.9 50 50" style="enable-background:new -202 395.9 50 50;" xml:space="preserve"> <style type="text/css"> .st0{fill:#595B5B;} .st1{fill:#4FB846;} </style> <path class="st0" d="M-192.3,428.2c-0.2,0-0.4-0.1-0.5-0.2c-0.3-0.2-0.3-0.6-0.2-0.9l0.8-1.9l-2.3-1.3c-2-1.2-3.6-2.6-4.7-4.2 c-1.1-1.6-1.7-3.4-1.7-5.2c0-2.2,0.9-4.3,2.5-6.2c1.6-1.9,3.9-3.3,6.6-4.4c2.7-1.1,5.7-1.6,8.8-1.6s6.1,0.5,8.8,1.6 c2.7,1.1,5,2.6,6.6,4.4c1.7,1.9,2.5,4,2.5,6.2s-0.9,4.3-2.5,6.2c-1.6,1.9-3.9,3.3-6.6,4.4c-4.1,1.6-8.7,2-13.5,1.2l-1.3-0.2l-1,0.7 c-0.6,0.4-1.2,0.8-1.9,1.2C-192,428.2-192.1,428.2-192.3,428.2z M-183,403.9c-2.9,0-5.7,0.5-8.2,1.5c-2.5,1-4.5,2.3-6,4 c-1.4,1.6-2.1,3.3-2.1,5.2c0,1.5,0.5,2.9,1.4,4.3c1,1.4,2.4,2.7,4.2,3.7l2.9,1.7c0.3,0.2,0.5,0.6,0.3,1l-0.1,0.2l1-0.7 c0.2-0.1,0.4-0.2,0.6-0.1l1.6,0.3c4.5,0.8,8.9,0.4,12.7-1.1c2.5-1,4.5-2.3,6-4c1.4-1.6,2.1-3.3,2.1-5.2s-0.7-3.5-2.1-5.2 c-1.5-1.7-3.5-3-6-4C-177.3,404.4-180,403.9-183,403.9z"></path> <path class="st1" d="M-155.6,414.5c-1.6-1.8-3.7-3.3-6.3-4.5c0.6,1.5,0.9,3,0.9,4.6c0,3.2-1.2,6.3-3.5,8.9c-2.1,2.3-4.8,4.2-8.2,5.5 c-3.2,1.2-6.6,1.9-10.2,1.9c-1.8,0-3.6-0.2-5.4-0.5c-0.1,0.3-0.1,0.3-0.2,0.6c1.3,0.9,2.9,1.8,4.6,2.4c3.2,1.3,6.7,1.9,10.3,1.9 c1.8,0,3.7-0.2,5.5-0.5l1.9-0.4l1.6,1.1c0.4,0.3,0.9,0.6,1.4,0.9c0.4,0.2,0.9,0,0.9-0.5c0.1-1.2,0.4-3.1,1.5-3.7l0.7-0.4 c2.3-1.3,4.1-2.9,5.4-4.8c1.3-1.8,1.9-3.7,1.9-5.7C-152.8,418.9-153.7,416.6-155.6,414.5z"></path> </svg> 