<?xml version="1.0" encoding="UTF-8"?> <!-- Generator: Adobe Illustrator 19.1.1, SVG Export Plug-In . SVG Version: 6.00 Build 0) --> <svg xmlns="http://www.w3.org/2000/svg" xmlns:xlink="http://www.w3.org/1999/xlink" id="Capa_1" x="0px" y="0px" viewBox="-62 395.9 50 50" style="enable-background:new -62 395.9 50 50;" xml:space="preserve"> <style type="text/css"> .st0{fill:#595B5B;} .st1{fill:#4FB846;} </style> <path class="st0" d="M-44.8,410.2c-0.4,0-0.7-0.3-0.7-0.7s0.3-0.7,0.7-0.7h10.6c0.4,0,0.7,0.3,0.7,0.7s-0.3,0.7-0.7,0.7H-44.8z"></path> <path class="st0" d="M-44.8,415.1c-0.4,0-0.7-0.3-0.7-0.7s0.3-0.7,0.7-0.7h14.4c0.4,0,0.7,0.3,0.7,0.7s-0.3,0.7-0.7,0.7H-44.8z"></path> <path class="st0" d="M-48.8,439c-1.3,0-2.4-1.1-2.4-2.4v-33.1c0-1.3,1.1-2.4,2.4-2.4h22.4c1.3,0,2.4,1.1,2.4,2.4v14.9 c-0.5,0.1-1,0.3-1.4,0.5c-0.1-0.1-0.3-0.1-0.4-0.2v-15.7h-23.6v34.2h18v1.8H-48.8z"></path> <path class="st1" d="M-18.8,426.4c-0.2-0.2-0.5-0.4-0.5-0.6c-0.1-0.2,0-0.5,0.1-0.8c0.1-0.5,0.2-1.1-0.1-1.5 c-0.3-0.4-0.9-0.5-1.4-0.5c-0.3,0-0.6-0.1-0.8-0.2c-0.1-0.1-0.3-0.4-0.4-0.7c-0.2-0.5-0.4-1-0.9-1.2c-0.1,0-0.2,0-0.3,0 c-0.4,0-0.8,0.2-1.1,0.4c-0.3,0.2-0.6,0.3-0.8,0.3c-0.2,0-0.5-0.2-0.8-0.3c-0.4-0.2-0.7-0.4-1.1-0.4c-0.1,0-0.2,0-0.3,0 c-0.5,0.2-0.7,0.7-0.9,1.2c-0.1,0.3-0.3,0.6-0.4,0.7c-0.2,0.1-0.5,0.1-0.8,0.2c-0.5,0.1-1.1,0.1-1.4,0.5c-0.3,0.4-0.2,1-0.1,1.5 c0.1,0.3,0.1,0.6,0.1,0.8c-0.1,0.2-0.3,0.4-0.5,0.6c-0.4,0.3-0.8,0.7-0.8,1.3c0,0.5,0.4,0.9,0.8,1.3c0.2,0.2,0.5,0.4,0.5,0.6 c0.1,0.2,0,0.5-0.1,0.8c-0.1,0.5-0.2,1.1,0.1,1.5c0.3,0.4,0.9,0.5,1.4,0.5c0.3,0,0.6,0.1,0.8,0.2c0.1,0.1,0.3,0.4,0.4,0.7 c0.2,0.5,0.4,1,0.9,1.2c0.1,0,0.2,0,0.3,0c0.4,0,0.8-0.2,1.1-0.4c0.3-0.2,0.6-0.3,0.8-0.3c0.2,0,0.5,0.2,0.8,0.3 c0.4,0.2,0.7,0.4,1.1,0.4c0.1,0,0.2,0,0.3,0c0.5-0.2,0.7-0.7,0.9-1.2c0.1-0.3,0.3-0.6,0.4-0.7c0.2-0.1,0.5-0.1,0.8-0.2 c0.5-0.1,1.1-0.1,1.4-0.5c0.3-0.4,0.2-1,0.1-1.5c-0.1-0.3-0.1-0.6-0.1-0.8c0.1-0.2,0.3-0.4,0.5-0.6c0.4-0.3,0.8-0.7,0.8-1.3 C-18,427.1-18.5,426.7-18.8,426.4z M-25.1,430.2c-1.4,0-2.6-1.2-2.6-2.6c0-1.4,1.2-2.6,2.6-2.6c1.4,0,2.6,1.2,2.6,2.6 C-22.5,429.1-23.7,430.2-25.1,430.2z"></path> <path class="st1" d="M-22.7,435.1c-0.2,0.1-0.3,0.1-0.5,0.1c-0.6,0-1.1-0.3-1.5-0.5c-0.1-0.1-0.3-0.2-0.4-0.2 c-0.1,0-0.3,0.1-0.4,0.2c-0.4,0.2-0.9,0.5-1.5,0.5l0,0c-0.2,0-0.4,0-0.5-0.1c-0.5-0.2-0.8-0.5-1-0.9v8.1c0,0.2,0.1,0.3,0.2,0.4 c0.1,0.1,0.3,0,0.4-0.1l2.8-2.6l2.8,2.6c0.1,0.1,0.2,0.1,0.3,0.1c0.1,0,0.1,0,0.2,0c0.1-0.1,0.2-0.2,0.2-0.4v-8.1 C-21.9,434.6-22.2,434.9-22.7,435.1z"></path> </svg> 