<?xml version="1.0" encoding="UTF-8"?> <!-- Generator: Adobe Illustrator 19.1.1, SVG Export Plug-In . SVG Version: 6.00 Build 0) --> <svg xmlns="http://www.w3.org/2000/svg" xmlns:xlink="http://www.w3.org/1999/xlink" id="Capa_1" x="0px" y="0px" viewBox="-132 395.9 50 50" style="enable-background:new -132 395.9 50 50;" xml:space="preserve"> <style type="text/css"> .st0{fill:#4FB846;} .st1{fill:#595B5B;} </style> <g> <g> <g> <path class="st0" d="M-99.5,409.1l-3.7-5.3l1.3-1c0.4-0.3,0.9-0.5,1.5-0.5c0.8,0,1.6,0.4,2.1,1l4.2,5.7H-99.5z"></path> <path class="st0" d="M-119.1,409.1l8.5-6.3c0.4-0.3,0.9-0.5,1.5-0.5c0.8,0,1.6,0.4,2.1,1l4.2,5.7"></path> <g> <path class="st1" d="M-92.7,412c0.5,0,0.9,0.4,0.9,0.9v4.3h-8.2c-3.9,0-7.1,3.2-7.1,7.1c0,1.9,0.7,3.7,2.1,5 c1.3,1.3,3.1,2.1,5,2.1h8.2v4.3c0,0.5-0.4,0.9-0.9,0.9h-31.2c-0.5,0-0.9-0.4-0.9-0.9v-22.8c0-0.2,0.1-0.5,0.3-0.6 c0.2-0.2,0.4-0.3,0.6-0.3H-92.7 M-92.7,410.6h-31.2c-1.3,0-2.3,1-2.3,2.3v22.8c0,1.3,1,2.3,2.3,2.3h31.2c1.3,0,2.3-1,2.3-2.3 V430h-9.6c-3.1,0-5.7-2.5-5.7-5.7s2.5-5.7,5.7-5.7h9.6v-5.8C-90.3,411.7-91.4,410.6-92.7,410.6L-92.7,410.6z"></path> </g> <g> <g> <path class="st1" d="M-89.2,422v4.7h-10.7c-1.3,0-2.3-1-2.3-2.3c0-1.3,1-2.3,2.3-2.3H-89.2 M-89.1,420.6h-10.8 c-2.1,0-3.8,1.7-3.8,3.8c0,2.1,1.7,3.8,3.8,3.8h10.8c0.7,0,1.2-0.6,1.2-1.2v-5C-87.8,421.2-88.4,420.6-89.1,420.6L-89.1,420.6z "></path> </g> </g> </g> </g> </g> </svg> 