<?xml version="1.0" encoding="UTF-8"?> <!-- Generator: Adobe Illustrator 19.1.1, SVG Export Plug-In . SVG Version: 6.00 Build 0) --> <svg xmlns="http://www.w3.org/2000/svg" xmlns:xlink="http://www.w3.org/1999/xlink" id="Capa_1" x="0px" y="0px" viewBox="-272 395.9 50 50" style="enable-background:new -272 395.9 50 50;" xml:space="preserve"> <style type="text/css"> .st0{fill:#595B5B;} .st1{fill:#4FB846;} </style> <g> <g> <path class="st0" d="M-225,419.2c0-3.8-3.1-6.9-6.9-6.9c-3.8,0-6.9,3.1-6.9,6.9c0,3.4,2.5,6.3,5.8,6.8v7.3 c0,5.7-4.6,10.3-10.3,10.3s-10.3-4.6-10.3-10.3l0-8.3c2.7-0.4,5.3-1.9,7.6-4.6c0.3-0.4,0.4-0.9,0.4-1.4c3.1-4,4.9-9.5,4.9-13.8 c0-6.5-2.9-7.2-7.8-8.3l0,0c-0.3-0.6-0.9-1-1.6-1c-1,0-1.8,0.8-1.8,1.8c0,1,0.8,1.8,1.8,1.8c0.4,0,0.8-0.2,1.1-0.4l0,0 c4.7,1.1,6,1.4,6,6.1c0,3.7-1.8,8.7-4.4,12.3c-0.4,0-0.9,0.2-1.2,0.6c-1.4,1.6-3.6,3.5-6.2,3.5c-2.6,0-4.8-1.9-6.2-3.5 c-0.3-0.4-0.8-0.6-1.2-0.6c-2.7-3.6-4.5-8.6-4.5-12.3c0-4.7,1.2-5,6-6.1l0,0c0.3,0.2,0.7,0.4,1.1,0.4c1,0,1.8-0.8,1.8-1.8 c0-1-0.8-1.8-1.8-1.8c-0.7,0-1.3,0.4-1.6,1l0,0c-4.8,1.1-7.8,1.8-7.8,8.3c0,4.2,1.9,9.7,5,13.8c-0.1,0.5,0,1,0.4,1.4 c2.3,2.7,4.9,4.2,7.6,4.6l0,8.3c0,6.9,5.7,12.6,12.6,12.6s12.6-5.6,12.6-12.6V426C-227.6,425.5-225,422.7-225,419.2z M-232,423.9 c-2.5,0-4.6-2.1-4.6-4.6c0-2.5,2.1-4.6,4.6-4.6s4.6,2.1,4.6,4.6C-227.4,421.8-229.4,423.9-232,423.9z"></path> <path class="st1" d="M-232,415.8c-1.9,0-3.5,1.5-3.5,3.5c0,1.9,1.6,3.5,3.5,3.5c1.9,0,3.5-1.5,3.5-3.5 C-228.5,417.3-230.1,415.8-232,415.8z"></path> </g> </g> </svg> 